<svg width="159" height="160" viewBox="0 0 159 160" fill="none" xmlns="http://www.w3.org/2000/svg">
<path d="M28.1563 1.28962e-05H130.844C134.542 -0.00358485 138.205 0.745614 141.623 2.20473C145.04 3.66385 148.146 5.80424 150.761 8.50342C153.376 11.2026 155.45 14.4075 156.864 17.9349C158.278 21.4622 159.003 25.2426 159 29.0598V130.94C159.003 134.757 158.278 138.538 156.864 142.065C155.45 145.592 153.376 148.797 150.761 151.497C148.146 154.196 145.04 156.336 141.623 157.795C138.205 159.254 134.542 160.004 130.844 160H28.1563C24.4577 160.004 20.7949 159.254 17.3772 157.795C13.9596 156.336 10.8543 154.196 8.23901 151.497C5.62377 148.797 3.54993 145.592 2.13618 142.065C0.72243 138.538 -0.00347338 134.757 1.24953e-05 130.94V29.0598C-0.00347338 25.2426 0.72243 21.4622 2.13618 17.9349C3.54993 14.4075 5.62377 11.2026 8.23901 8.50342C10.8543 5.80424 13.9596 3.66385 17.3772 2.20473C20.7949 0.745614 24.4577 -0.00358485 28.1563 1.28962e-05Z" fill="#14001E"/>
<path d="M65.9756 85.5258C66.4378 77.2291 70.4753 69.9196 76.5663 64.7381C82.5396 59.6486 90.5796 56.538 99.3521 56.538C108.116 56.538 116.156 59.6486 122.134 64.7381C128.22 69.9196 132.258 77.2292 132.724 85.5171C133.186 94.0419 129.781 101.961 123.808 107.832C117.717 113.803 109.053 117.55 99.3521 117.55C89.6509 117.55 80.97 113.803 74.8833 107.832C68.9056 101.961 65.5091 94.0418 65.9756 85.5258Z" fill="white"/>
<path d="M82.2015 86.2758C82.4387 82.0187 84.5103 78.2682 87.6356 75.6095C90.7006 72.9981 94.826 71.402 99.3272 71.402C103.824 71.402 107.949 72.9981 111.016 75.6095C114.14 78.2682 116.211 82.0188 116.451 86.2713C116.688 90.6455 114.941 94.7089 111.876 97.7211C108.75 100.785 104.305 102.708 99.3272 102.708C94.3494 102.708 89.8952 100.785 86.7721 97.7211C83.7049 94.7089 81.9621 90.6454 82.2015 86.2758Z" fill="#265787"/>
<path d="M54.9302 94.8979C54.9592 96.5639 55.4872 99.8012 56.2792 102.329C57.9436 107.68 60.767 112.631 64.6954 116.994C68.7269 121.478 73.6912 125.08 79.4251 127.638C85.4521 130.323 91.9824 131.692 98.7655 131.681C105.538 131.672 112.068 130.276 118.095 127.57C123.829 124.988 128.789 121.37 132.813 116.883C136.74 112.503 139.558 107.543 141.227 102.192C142.066 99.4882 142.596 96.744 142.809 93.9907C143.017 91.278 142.93 88.5608 142.547 85.8458C141.8 80.5554 139.981 75.5914 137.18 71.0665C134.619 66.9085 131.317 63.2683 127.39 60.2043L127.399 60.1976L87.7765 29.5831C87.7407 29.5561 87.7116 29.5269 87.6736 29.5021C85.074 27.494 80.7025 27.5008 77.8434 29.5134C74.953 31.5485 74.6218 34.914 77.1946 37.037L77.1834 37.0482L93.7095 50.5714L43.3393 50.6254H43.2722C39.1088 50.6299 35.1065 53.3786 34.3145 56.8522C33.5002 60.3912 36.328 63.3268 40.6569 63.3425L40.6502 63.3583L66.1809 63.3088L20.6229 98.4977C20.5647 98.5405 20.5021 98.5855 20.4484 98.6283C16.1508 101.94 14.7615 107.446 17.4685 110.931C20.2158 114.475 26.0571 114.481 30.3994 110.951L55.2635 90.4743C55.2635 90.4743 54.9011 93.2388 54.9302 94.8979ZM118.822 104.155C113.699 109.407 106.526 112.386 98.7655 112.401C90.9936 112.415 83.8211 109.463 78.698 104.22C76.1946 101.665 74.3556 98.7251 73.2214 95.5936C72.1095 92.5162 71.6777 89.2496 71.9641 85.9538C72.2348 82.7323 73.1878 79.6594 74.7091 76.8791C76.2036 74.1462 78.2618 71.6766 80.8032 69.5875C85.7832 65.5037 92.1234 63.293 98.7544 63.284C105.392 63.275 111.728 65.4654 116.712 69.5357C119.249 71.6158 121.305 74.0764 122.8 76.8049C124.328 79.5829 125.274 82.6445 125.556 85.875C125.838 89.1663 125.406 92.4284 124.294 95.5081C123.158 98.6485 121.325 101.589 118.822 104.155Z" fill="#EA7600"/>
</svg>
