<svg width="158" height="160" viewBox="0 0 158 160" fill="none" xmlns="http://www.w3.org/2000/svg">
<path d="M27.9792 1.28962e-05H130.021C133.696 -0.00358485 137.336 0.745614 140.732 2.20473C144.128 3.66385 147.214 5.80424 149.813 8.50342C152.412 11.2026 154.472 14.4075 155.877 17.9349C157.282 21.4622 158.003 25.2426 158 29.0598V130.94C158.003 134.757 157.282 138.538 155.877 142.065C154.472 145.592 152.412 148.797 149.813 151.497C147.214 154.196 144.128 156.336 140.732 157.795C137.336 159.254 133.696 160.004 130.021 160H27.9792C24.3039 160.004 20.6641 159.254 17.2679 157.795C13.8718 156.336 10.786 154.196 8.18719 151.497C5.5884 148.797 3.5276 145.592 2.12274 142.065C0.717887 138.538 -0.00345153 134.757 1.24167e-05 130.94V29.0598C-0.00345153 25.2426 0.717887 21.4622 2.12274 17.9349C3.5276 14.4075 5.5884 11.2026 8.18719 8.50342C10.786 5.80424 13.8718 3.66385 17.2679 2.20473C20.6641 0.745614 24.3039 -0.00358485 27.9792 1.28962e-05Z" fill="#14001E"/>
<path d="M131.924 55.1817C131.924 53.1558 131.496 51.3657 130.631 49.8297C129.781 48.3185 128.508 47.0522 126.8 46.051C112.708 37.8221 98.6011 29.6184 84.5127 21.3811C80.7146 19.1606 77.032 19.242 73.262 21.4944C67.6526 24.844 39.5683 41.1378 31.1996 46.0464C27.7531 48.0673 26.076 51.1593 26.0752 55.1779C26.0698 71.7267 26.0752 88.2755 26.0698 104.824C26.0698 106.806 26.4803 108.562 27.3074 110.074C28.1578 111.631 29.4484 112.932 31.195 113.956C39.5642 118.865 67.6522 135.157 73.2604 138.508C77.032 140.762 80.7146 140.842 84.514 138.621C98.6027 130.383 112.71 122.18 126.805 113.951C128.552 112.927 129.842 111.625 130.693 110.07C131.519 108.557 131.93 106.802 131.93 104.82C131.93 104.82 131.93 71.7309 131.924 55.1817Z" fill="#A179DC"/>
<path d="M79.1615 79.8397L27.3071 110.074C28.1575 111.631 29.4481 112.932 31.1947 113.956C39.5639 118.864 67.6519 135.157 73.2601 138.508C77.0317 140.761 80.7143 140.842 84.5137 138.621C98.6024 130.383 112.71 122.18 126.805 113.951C128.551 112.927 129.842 111.625 130.692 110.07L79.1615 79.8397Z" fill="#280068"/>
<path d="M131.924 55.1817C131.923 53.1558 131.496 51.3657 130.63 49.8297L79.1616 79.8403L130.692 110.07C131.518 108.557 131.929 106.802 131.93 104.82C131.93 104.82 131.93 71.7309 131.924 55.1817Z" fill="#390091"/>
<path d="M109.692 68.5376V74.1891H115.273V68.5376H118.063V74.1891H123.644V77.0148H118.063V82.6658H123.644V85.4916H118.063V91.143H115.273V85.4916H109.692V91.143H106.902V85.4916H101.321V82.6658H106.902V77.0148H101.321V74.1891H106.902V68.5376H109.692ZM115.273 77.0144H109.692V82.6658H115.273V77.0144Z" fill="white"/>
<path d="M79.2759 40.1551C93.8323 40.1551 106.541 48.1604 113.348 60.0598L113.282 59.9453L96.155 69.9312C92.781 64.1459 86.5955 60.2414 79.4991 60.1609L79.2755 60.1596C68.4547 60.1596 59.6821 69.0432 59.6821 80.001C59.6786 83.4547 60.5696 86.849 62.2663 89.8451C65.6436 95.8158 71.9927 99.8428 79.2759 99.8428C86.6042 99.8428 92.9894 95.7646 96.3493 89.7302L96.2677 89.8749L113.368 99.9069C106.636 111.706 94.1011 119.686 79.7141 119.845L79.2759 119.848C64.6736 119.848 51.9289 111.793 45.1386 99.8306C41.8238 93.9908 39.9272 87.2207 39.9272 80.001C39.9272 57.9949 57.5437 40.1547 79.2755 40.1547L79.2759 40.1551Z" fill="white"/>
</svg>
