<svg width="158" height="160" viewBox="0 0 158 160" fill="none" xmlns="http://www.w3.org/2000/svg">
<path d="M27.9792 1.28962e-05H130.021C133.696 -0.00358485 137.336 0.745614 140.732 2.20473C144.128 3.66385 147.214 5.80424 149.813 8.50342C152.412 11.2026 154.472 14.4075 155.877 17.9349C157.282 21.4622 158.003 25.2426 158 29.0598V130.94C158.003 134.757 157.282 138.538 155.877 142.065C154.472 145.592 152.412 148.797 149.813 151.497C147.214 154.196 144.128 156.336 140.732 157.795C137.336 159.254 133.696 160.004 130.021 160H27.9792C24.3039 160.004 20.6641 159.254 17.2679 157.795C13.8718 156.336 10.786 154.196 8.18719 151.497C5.5884 148.797 3.5276 145.592 2.12274 142.065C0.717887 138.538 -0.00345153 134.757 1.24167e-05 130.94V29.0598C-0.00345153 25.2426 0.717887 21.4622 2.12274 17.9349C3.5276 14.4075 5.5884 11.2026 8.18719 8.50342C10.786 5.80424 13.8718 3.66385 17.2679 2.20473C20.6641 0.745614 24.3039 -0.00358485 27.9792 1.28962e-05Z" fill="#14001E"/>
<path d="M79.0098 130.347L43.4699 120.356L35.5498 30.4001H122.576L114.648 120.342L79.0098 130.347Z" fill="#264DE4"/>
<path d="M107.86 114.615L114.635 37.7551H79.063V122.699L107.86 114.615Z" fill="#2965F1"/>
<path d="M53.7063 71.1185L54.6827 82.1512H79.0631V71.1185H53.7063ZM51.7441 48.7882L52.7344 59.8209H79.0631V48.7882H51.7441ZM79.0631 99.7716L79.0153 99.7844L66.8819 96.4667L66.1062 87.6677H55.1695L56.6957 104.991L79.0129 111.264L79.0631 111.25V99.7716Z" fill="#EBEBEB"/>
<path d="M104.35 71.1185L106.317 48.7882H79.0252V59.8209H94.3769L93.3856 71.1185H79.0252V82.1512H92.441L91.1761 96.4598L79.0249 99.7809V111.259L101.36 104.991L101.524 103.127L104.084 74.0811L104.35 71.1185Z" fill="white"/>
</svg>
