<svg width="158" height="160" viewBox="0 0 158 160" fill="none" xmlns="http://www.w3.org/2000/svg">
<path d="M27.9792 1.28962e-05H130.021C133.696 -0.00358485 137.336 0.745614 140.732 2.20473C144.128 3.66385 147.214 5.80424 149.813 8.50342C152.412 11.2026 154.472 14.4075 155.877 17.9349C157.282 21.4622 158.003 25.2426 158 29.0598V130.94C158.003 134.757 157.282 138.538 155.877 142.065C154.472 145.592 152.412 148.797 149.813 151.497C147.214 154.196 144.128 156.336 140.732 157.795C137.336 159.254 133.696 160.004 130.021 160H27.9792C24.3039 160.004 20.6641 159.254 17.2679 157.795C13.8718 156.336 10.786 154.196 8.18719 151.497C5.5884 148.797 3.5276 145.592 2.12274 142.065C0.717887 138.538 -0.00345153 134.757 1.24167e-05 130.94V29.0598C-0.00345153 25.2426 0.717887 21.4622 2.12274 17.9349C3.5276 14.4075 5.5884 11.2026 8.18719 8.50342C10.786 5.80424 13.8718 3.66385 17.2679 2.20473C20.6641 0.745614 24.3039 -0.00358485 27.9792 1.28962e-05Z" fill="#14001E"/>
<path d="M63.8587 128.8C72.9484 128.8 80.3171 121.338 80.3171 112.133V95.4667H63.8587C54.769 95.4667 47.4004 102.929 47.4004 112.133C47.4004 121.338 54.769 128.8 63.8587 128.8Z" fill="#0ACF83"/>
<path d="M47.4004 78.8001C47.4004 69.5953 54.769 62.1334 63.8587 62.1334H80.3171V95.4668H63.8587C54.769 95.4668 47.4004 88.0048 47.4004 78.8001Z" fill="#A259FF"/>
<path d="M47.4004 45.4667C47.4004 36.262 54.769 28.8 63.8587 28.8H80.3171V62.1334H63.8587C54.769 62.1334 47.4004 54.6715 47.4004 45.4667Z" fill="#F24E1E"/>
<path d="M80.3169 28.8H96.7752C105.865 28.8 113.234 36.262 113.234 45.4667C113.234 54.6715 105.865 62.1334 96.7752 62.1334H80.3169V28.8Z" fill="#FF7262"/>
<path d="M113.234 78.8001C113.234 88.0048 105.865 95.4668 96.7752 95.4668C87.6855 95.4668 80.3169 88.0048 80.3169 78.8001C80.3169 69.5953 87.6855 62.1334 96.7752 62.1334C105.865 62.1334 113.234 69.5953 113.234 78.8001Z" fill="#1ABCFE"/>
</svg>
