<svg width="158" height="160" viewBox="0 0 158 160" fill="none" xmlns="http://www.w3.org/2000/svg">
<path d="M27.9792 1.28962e-05H130.021C133.696 -0.00358485 137.336 0.745614 140.732 2.20473C144.128 3.66385 147.214 5.80424 149.813 8.50342C152.412 11.2026 154.472 14.4075 155.877 17.9349C157.282 21.4622 158.003 25.2426 158 29.0598V130.94C158.003 134.757 157.282 138.538 155.877 142.065C154.472 145.592 152.412 148.797 149.813 151.497C147.214 154.196 144.128 156.336 140.732 157.795C137.336 159.254 133.696 160.004 130.021 160H27.9792C24.3039 160.004 20.6641 159.254 17.2679 157.795C13.8718 156.336 10.786 154.196 8.18719 151.497C5.5884 148.797 3.5276 145.592 2.12274 142.065C0.717887 138.538 -0.00345153 134.757 1.24167e-05 130.94V29.0598C-0.00345153 25.2426 0.717887 21.4622 2.12274 17.9349C3.5276 14.4075 5.5884 11.2026 8.18719 8.50342C10.786 5.80424 13.8718 3.66385 17.2679 2.20473C20.6641 0.745614 24.3039 -0.00358485 27.9792 1.28962e-05Z" fill="#14001E"/>
<path d="M122.514 30.3999L114.586 120.344L78.9469 130.349L43.4061 120.358L35.4858 30.3999H122.514Z" fill="#E44D26"/>
<path d="M79 122.701L107.798 114.616L114.573 37.7551H79V122.701Z" fill="#F16529"/>
<path d="M63.5875 59.8213H79.0003V48.7883H51.6807L51.9413 51.7482L54.6193 82.1521H79.0003V71.1192H64.5833L63.5875 59.8213ZM66.043 87.6688H55.1061L56.6323 104.992L78.9501 111.266L79.0003 111.252V99.773L78.9525 99.7857L66.8188 96.468L66.043 87.6688Z" fill="#EBEBEB"/>
<path d="M78.9627 82.1521H92.3788L91.1139 96.461L78.9624 99.7823V111.261L101.298 104.992L101.462 103.128L104.022 74.0818L104.288 71.1192H78.9627V82.1521ZM78.9627 59.7943V59.8213H105.279L105.498 57.3416L105.994 51.7482L106.255 48.7883H78.9627V59.7947V59.7943Z" fill="white"/>
</svg>
