<svg width="159" height="160" viewBox="0 0 159 160" fill="none" xmlns="http://www.w3.org/2000/svg">
<path d="M28.1563 1.28962e-05H130.844C134.542 -0.00358485 138.205 0.745614 141.623 2.20473C145.04 3.66385 148.146 5.80424 150.761 8.50342C153.376 11.2026 155.45 14.4075 156.864 17.9349C158.278 21.4622 159.003 25.2426 159 29.0598V130.94C159.003 134.757 158.278 138.538 156.864 142.065C155.45 145.592 153.376 148.797 150.761 151.497C148.146 154.196 145.04 156.336 141.623 157.795C138.205 159.254 134.542 160.004 130.844 160H28.1563C24.4577 160.004 20.7949 159.254 17.3772 157.795C13.9596 156.336 10.8543 154.196 8.23901 151.497C5.62377 148.797 3.54993 145.592 2.13618 142.065C0.72243 138.538 -0.00347338 134.757 1.24953e-05 130.94V29.0598C-0.00347338 25.2426 0.72243 21.4622 2.13618 17.9349C3.54993 14.4075 5.62377 11.2026 8.23901 8.50342C10.8543 5.80424 13.9596 3.66385 17.3772 2.20473C20.7949 0.745614 24.4577 -0.00358485 28.1563 1.28962e-05Z" fill="#14001E"/>
<path d="M92.9427 95.3937C96.1454 100.656 100.312 104.524 107.682 104.524C113.873 104.524 117.827 101.41 117.827 97.1079C117.827 91.9524 113.764 90.1264 106.95 87.127L103.215 85.5143C92.4329 80.8921 85.2703 75.1016 85.2703 62.8603C85.2703 51.5841 93.8083 43 107.152 43C116.651 43 123.481 46.327 128.402 55.0381L116.767 62.5556C114.206 57.9333 111.442 56.1124 107.152 56.1124C102.775 56.1124 100.002 58.906 100.002 62.5556C100.002 67.066 102.778 68.8921 109.188 71.6857L112.924 73.2959C125.618 78.774 132.786 84.3587 132.786 96.9149C132.786 110.451 122.219 117.867 108.027 117.867C94.1516 117.867 85.187 111.213 80.8006 102.492L92.9427 95.3937ZM40.1622 96.6965C42.5094 100.887 44.6445 104.43 49.778 104.43C54.6868 104.43 57.7835 102.497 57.7835 94.9822V43.8584H72.7244V95.1854C72.7244 110.754 63.6539 117.839 50.414 117.839C38.4511 117.839 31.5232 111.61 28 104.106L40.1622 96.6965Z" fill="#EA7600"/>
</svg>
